<svg width="32" height="32" viewBox="0 0 32 32" fill="none" xmlns="http://www.w3.org/2000/svg">
<path d="M12.7599 25.0934C12.5066 25.0934 12.2533 25 12.0533 24.8L3.95992 16.7067C3.57326 16.32 3.57326 15.68 3.95992 15.2934L12.0533 7.20003C12.4399 6.81337 13.0799 6.81337 13.4666 7.20003C13.8533 7.5867 13.8533 8.2267 13.4666 8.61337L6.07992 16L13.4666 23.3867C13.8533 23.7734 13.8533 24.4134 13.4666 24.8C13.2799 25 13.0133 25.0934 12.7599 25.0934Z" fill="white"/>
<path d="M27.3333 17H4.89331C4.34664 17 3.89331 16.5467 3.89331 16C3.89331 15.4533 4.34664 15 4.89331 15H27.3333C27.88 15 28.3333 15.4533 28.3333 16C28.3333 16.5467 27.88 17 27.3333 17Z" fill="white"/>
</svg>
