<svg width="32" height="32" viewBox="0 0 32 32" fill="none" xmlns="http://www.w3.org/2000/svg">
<path d="M19.2401 25.0934C18.9867 25.0934 18.7334 25 18.5334 24.8C18.1467 24.4134 18.1467 23.7734 18.5334 23.3867L25.9201 16L18.5334 8.61337C18.1467 8.2267 18.1467 7.5867 18.5334 7.20003C18.9201 6.81337 19.5601 6.81337 19.9467 7.20003L28.0401 15.2934C28.4267 15.68 28.4267 16.32 28.0401 16.7067L19.9467 24.8C19.7467 25 19.4934 25.0934 19.2401 25.0934Z" fill="white"/>
<path d="M27.1067 17H4.66675C4.12008 17 3.66675 16.5467 3.66675 16C3.66675 15.4533 4.12008 15 4.66675 15H27.1067C27.6534 15 28.1067 15.4533 28.1067 16C28.1067 16.5467 27.6534 17 27.1067 17Z" fill="white"/>
</svg>
